<svg width="32" height="32" viewBox="0 0 32 32" fill="none" xmlns="http://www.w3.org/2000/svg">
<path d="M30.1161 6.4187C30.9819 6.4187 31.6864 7.12314 31.6864 7.98908V24.1078C31.6864 24.9736 30.982 25.6781 30.1161 25.6781H1.88287C1.017 25.6782 0.3125 24.9738 0.3125 24.1078V7.98908C0.3125 7.1232 1.01694 6.4187 1.88287 6.4187H30.1161ZM30.1161 6.1062H1.88287C0.843 6.1062 0 6.9492 0 7.98908V24.1078C0 25.1478 0.843 25.9906 1.88287 25.9906H30.1161C31.1561 25.9906 31.9989 25.1478 31.9989 24.1078V7.98908C31.9989 6.9492 31.156 6.1062 30.1161 6.1062Z" fill="#FF9900"/>
<path fill-rule="evenodd" clip-rule="evenodd" d="M19.2072 19.5743C17.6272 20.7404 15.3364 21.3606 13.364 21.3606C10.5994 21.3606 8.11003 20.3386 6.22597 18.6376C6.07809 18.5041 6.21003 18.3214 6.38784 18.4251C8.42041 19.6077 10.9338 20.3201 13.5299 20.3201C15.2812 20.3201 17.2062 19.9567 18.9775 19.2053C19.2447 19.0919 19.4687 19.3813 19.2072 19.5743Z" fill="#FF9900"/>
<path fill-rule="evenodd" clip-rule="evenodd" d="M19.8647 18.8239C19.6626 18.5651 18.5288 18.7011 18.0194 18.7621C17.8652 18.7806 17.8413 18.6461 17.9804 18.5483C18.8848 17.913 20.3668 18.0964 20.5389 18.309C20.7125 18.5238 20.4935 20.0094 19.6459 20.7186C19.5155 20.8278 19.3916 20.7695 19.4493 20.6254C19.6399 20.1491 20.0669 19.0826 19.8647 18.8239Z" fill="#FF9900"/>
<path fill-rule="evenodd" clip-rule="evenodd" d="M18.0552 14.0605V13.4432C18.0556 13.3493 18.1264 13.2867 18.2116 13.2869L20.9783 13.2866C21.0667 13.2866 21.1376 13.3511 21.1379 13.4426L21.1376 13.9719C21.137 14.0607 21.0623 14.1766 20.9294 14.3605L19.4964 16.4066C20.0284 16.3942 20.5911 16.4737 21.0744 16.7455C21.1834 16.8067 21.2125 16.8974 21.2211 16.9864V17.645C21.2211 17.7358 21.1218 17.8408 21.0175 17.7861C20.1659 17.3401 19.0359 17.2912 18.0943 17.7916C17.9981 17.8428 17.8975 17.7394 17.8975 17.6486V17.0223C17.8975 16.9222 17.8993 16.7508 18.0004 16.5981L19.6607 14.2162L18.2151 14.2159C18.1266 14.2159 18.0558 14.1529 18.0552 14.0605Z" fill="black"/>
<path fill-rule="evenodd" clip-rule="evenodd" d="M7.96295 17.9159H7.12133C7.0412 17.9107 6.97714 17.8505 6.9707 17.7737L6.97127 13.4539C6.97127 13.3675 7.04402 13.2984 7.1337 13.2984L7.91752 13.2982C7.99952 13.3024 8.06539 13.3645 8.07064 13.4433V14.0072H8.08639C8.2907 13.4618 8.67564 13.2073 9.19414 13.2073C9.72052 13.2073 10.0505 13.4618 10.2863 14.0072C10.4905 13.4618 10.954 13.2073 11.449 13.2073C11.8026 13.2073 12.1875 13.3527 12.4232 13.68C12.6903 14.0435 12.6354 14.5708 12.6354 15.0345L12.6347 17.7604C12.6347 17.8468 12.562 17.9159 12.4724 17.9159H11.6317C11.5472 17.9105 11.4806 17.8436 11.4806 17.7608L11.4804 15.4708C11.4804 15.289 11.4961 14.8343 11.4568 14.6617C11.394 14.3708 11.2055 14.289 10.962 14.289C10.7576 14.289 10.5455 14.4254 10.459 14.6435C10.3726 14.8617 10.3805 15.2253 10.3805 15.4708V17.7605C10.3805 17.8468 10.3078 17.916 10.2182 17.916H9.37752C9.29302 17.9106 9.22639 17.8437 9.22639 17.7608L9.22558 15.4708C9.22558 14.989 9.30414 14.28 8.70708 14.28C8.10208 14.28 8.12564 14.9708 8.12564 15.4708L8.12527 17.7605C8.12539 17.8468 8.05264 17.9159 7.96295 17.9159Z" fill="black"/>
<path fill-rule="evenodd" clip-rule="evenodd" d="M23.5195 13.2073C24.7688 13.2073 25.4444 14.28 25.4444 15.6435C25.4444 16.9614 24.6982 18.007 23.5195 18.007C22.2939 18.007 21.626 16.9342 21.626 15.598C21.626 14.2527 22.3017 13.2073 23.5195 13.2073ZM23.5274 14.089C22.9066 14.089 22.8673 14.9343 22.8673 15.4617C22.8673 15.9888 22.8595 17.1161 23.5195 17.1161C24.1717 17.1161 24.203 16.207 24.203 15.6526C24.203 15.289 24.1874 14.8527 24.0774 14.5071C23.983 14.2072 23.7944 14.089 23.5274 14.089Z" fill="black"/>
<path fill-rule="evenodd" clip-rule="evenodd" d="M27.0642 17.9157H26.2257C26.1413 17.9103 26.0746 17.8434 26.0746 17.7606L26.0732 13.4392C26.0803 13.3602 26.1501 13.2982 26.2349 13.2982L27.0157 13.2979C27.0891 13.3017 27.1497 13.3519 27.1652 13.419V14.0797H27.1811C27.4168 13.4888 27.7467 13.207 28.3281 13.207C28.7051 13.207 29.0745 13.3434 29.3102 13.7161C29.5303 14.0615 29.5303 14.6433 29.5303 15.0615V17.7797C29.5208 17.8563 29.4522 17.9157 29.369 17.9157H28.5252C28.4473 17.9107 28.3844 17.8535 28.3754 17.7797V15.4342C28.3754 14.9615 28.4304 14.2706 27.8489 14.2706C27.6445 14.2706 27.456 14.407 27.3619 14.616C27.244 14.8797 27.2281 15.1433 27.2281 15.4342V17.7602C27.2266 17.8466 27.1539 17.9157 27.0642 17.9157Z" fill="black"/>
<path fill-rule="evenodd" clip-rule="evenodd" d="M15.8494 15.853C15.8494 16.181 15.8572 16.4541 15.6919 16.7458C15.558 16.9826 15.3454 17.1284 15.1092 17.1284C14.7865 17.1284 14.5975 16.8823 14.5975 16.5179C14.5975 15.8011 15.2405 15.6707 15.8494 15.6707V15.853ZM16.6979 17.9051C16.6421 17.955 16.5618 17.9584 16.499 17.9246C16.2195 17.6922 16.1695 17.5848 16.0166 17.3637C15.5545 17.8343 15.2273 17.9755 14.6289 17.9755C13.9203 17.9755 13.3691 17.5382 13.3691 16.6637C13.3691 15.9805 13.7391 15.5158 14.2666 15.2881C14.7233 15.0877 15.3611 15.0512 15.8493 14.9964V14.8872C15.8493 14.6867 15.8651 14.4499 15.747 14.2768C15.6445 14.1219 15.4478 14.0581 15.2745 14.0581C14.9535 14.0581 14.6681 14.2226 14.598 14.5635C14.5835 14.6393 14.5281 14.7143 14.4518 14.7182L13.636 14.63C13.5671 14.6143 13.4905 14.5591 13.5104 14.454C13.6979 13.4643 14.5916 13.1653 15.3926 13.1653C15.802 13.1653 16.3375 13.2746 16.6603 13.5844C17.0698 13.967 17.0303 14.4772 17.0303 15.033V16.3442C17.0303 16.7387 17.1942 16.9117 17.3481 17.1242C17.4017 17.2008 17.4139 17.2918 17.3453 17.3478C17.1733 17.492 16.8679 17.7573 16.6998 17.9068L16.6979 17.9051Z" fill="black"/>
<path fill-rule="evenodd" clip-rule="evenodd" d="M4.81606 15.853C4.81606 16.181 4.824 16.4541 4.65856 16.7458C4.52481 16.9826 4.31219 17.1284 4.07594 17.1284C3.75319 17.1284 3.56419 16.8823 3.56419 16.5179C3.56419 15.8011 4.20719 15.6707 4.816 15.6707L4.81606 15.853ZM5.66469 17.9051C5.60894 17.955 5.52856 17.9584 5.46581 17.9246C5.18619 17.6922 5.13613 17.5848 4.98331 17.3637C4.52131 17.8343 4.19406 17.9755 3.59569 17.9755C2.887 17.9755 2.33594 17.5382 2.33594 16.6637C2.33594 15.9805 2.70594 15.5158 3.2335 15.2881C3.69019 15.0877 4.328 15.0512 4.81606 14.9964V14.8872C4.81606 14.6867 4.83181 14.4499 4.71381 14.2768C4.61144 14.1219 4.4145 14.0581 4.24137 14.0581C3.92037 14.0581 3.63488 14.2226 3.56488 14.5635C3.55025 14.6393 3.49494 14.7143 3.41863 14.7182L2.60287 14.63C2.53394 14.6143 2.45731 14.5591 2.47731 14.454C2.66475 13.4643 3.55844 13.1653 4.35944 13.1653C4.76894 13.1653 5.30425 13.2746 5.62713 13.5844C6.0365 13.967 5.99719 14.4772 5.99719 15.033V16.3442C5.99719 16.7387 6.161 16.9117 6.31488 17.1242C6.36856 17.2008 6.38069 17.2918 6.31219 17.3478C6.14025 17.492 5.83475 17.7573 5.66669 17.9068L5.66469 17.9051Z" fill="black"/>
</svg>
