<svg width="32" height="32" viewBox="0 0 32 32" fill="none" xmlns="http://www.w3.org/2000/svg">
<g clip-path="url(#clip0_774_865)">
<path d="M30.1015 6.38745C30.9674 6.38745 31.6719 7.09189 31.6719 7.95783V24.0766C31.6719 24.9425 30.9674 25.647 30.1015 25.647H1.86823C1.00235 25.647 0.297852 24.9425 0.297852 24.0766V7.95783C0.297852 7.09195 1.00229 6.38745 1.86823 6.38745H30.1015ZM30.1015 6.07495H1.86823C0.828351 6.07495 -0.0146484 6.91795 -0.0146484 7.95783V24.0766C-0.0146484 25.1165 0.828351 25.9595 1.86823 25.9595H30.1015C31.1414 25.9595 31.9844 25.1165 31.9844 24.0766V7.95783C31.9844 6.91795 31.1414 6.07495 30.1015 6.07495Z" fill="#EF7D00"/>
<path d="M31.7703 24.7534V17.1489C31.7703 17.1489 23.2309 23.174 7.59082 25.8724H30.0609C31.0211 25.8429 31.5816 25.5301 31.7703 24.7534Z" fill="#EF7D00"/>
<path d="M17.0036 11.0737C15.7206 11.0737 14.6797 12.076 14.6797 13.313C14.6797 14.6281 15.6753 15.6112 17.0036 15.6112C18.2986 15.6112 19.3211 14.6151 19.3211 13.3389C19.3211 12.07 18.3054 11.0737 17.0036 11.0737Z" fill="url(#paint0_radial_774_865)"/>
<path d="M3.8109 11.1553H2.56152V15.5127H3.80434C4.46377 15.5127 4.94065 15.3565 5.35902 15.01C5.85534 14.5983 6.14977 13.9777 6.14977 13.3362C6.14971 12.0497 5.18865 11.1553 3.8109 11.1553ZM4.8044 14.428C4.53577 14.6704 4.18996 14.7751 3.64034 14.7751H3.41196V11.8931H3.64034C4.1899 11.8931 4.52252 11.9913 4.8044 12.2458C5.09846 12.5072 5.27371 12.912 5.27371 13.3299C5.27371 13.7487 5.09846 14.1677 4.8044 14.428Z" fill="#05171D"/>
<path d="M7.39099 11.1553H6.54199V15.5127H7.39099V11.1553Z" fill="#05171D"/>
<path d="M9.46954 12.8267C8.95916 12.6376 8.80904 12.5129 8.80904 12.2786C8.80904 12.004 9.07635 11.795 9.44285 11.795C9.69766 11.795 9.90679 11.8995 10.1297 12.147L10.5734 11.5665C10.2075 11.2456 9.76979 11.0825 9.29235 11.0825C8.5221 11.0825 7.9336 11.6185 7.9336 12.33C7.9336 12.9317 8.20785 13.2385 9.00523 13.5268C9.33866 13.6438 9.50816 13.7218 9.59329 13.7751C9.76323 13.8862 9.84848 14.0424 9.84848 14.2253C9.84848 14.5786 9.56723 14.8397 9.18773 14.8397C8.78266 14.8397 8.45623 14.6373 8.2601 14.2585L7.71191 14.7883C8.1031 15.3625 8.57373 15.6181 9.22116 15.6181C10.1032 15.6181 10.7237 15.0292 10.7237 14.1866C10.7236 13.4938 10.4369 13.18 9.46954 12.8267Z" fill="#05171D"/>
<path d="M10.9922 13.3362C10.9922 14.6181 11.9987 15.6111 13.2929 15.6111C13.6588 15.6111 13.9724 15.5388 14.3583 15.3565V14.3564C14.0181 14.6963 13.7174 14.8333 13.3317 14.8333C12.4759 14.8333 11.8679 14.2123 11.8679 13.3299C11.8679 12.494 12.4949 11.8338 13.2929 11.8338C13.6974 11.8338 14.0051 11.9776 14.3583 12.3238V11.3236C13.9858 11.1348 13.6782 11.0569 13.3123 11.0569C12.0247 11.057 10.9922 12.0699 10.9922 13.3362Z" fill="#05171D"/>
<path d="M21.2444 14.0823L20.0813 11.1553H19.1533L21.0032 15.6241H21.4602L23.3424 11.1553H22.4214L21.2444 14.0823Z" fill="#05171D"/>
<path d="M23.7285 15.5128H26.1394V14.7751H24.578V13.5982H26.0797V12.8603H24.578V11.8932H26.1394V11.1553H23.7285V15.5128Z" fill="#05171D"/>
<path d="M29.5044 12.4413C29.5044 11.6249 28.9432 11.1553 27.9625 11.1553H26.7012V15.5127H27.5515V13.7615H27.6627L28.8384 15.5127H29.8839L28.5108 13.6773C29.1522 13.5461 29.5044 13.1082 29.5044 12.4413ZM27.7988 13.1609H27.5515V11.8405H27.8124C28.3429 11.8405 28.6302 12.0633 28.6302 12.4873C28.6302 12.9248 28.3429 13.1609 27.7988 13.1609Z" fill="#05171D"/>
<path d="M30.1031 11.4798C30.1031 11.4034 30.0521 11.3621 29.9586 11.3621H29.835V11.7459H29.9259V11.5966L30.0333 11.7459H30.1472L30.0196 11.5872C30.0734 11.5729 30.1031 11.5332 30.1031 11.4798ZM29.943 11.532H29.926V11.4322H29.9438C29.9891 11.4322 30.0121 11.4486 30.0121 11.4812C30.012 11.515 29.9881 11.532 29.943 11.532Z" fill="#1D1D1B"/>
<path d="M29.9776 11.2175C29.7918 11.2175 29.6426 11.367 29.6426 11.5528C29.6426 11.7388 29.7926 11.8883 29.9776 11.8883C30.1599 11.8883 30.3087 11.7373 30.3087 11.5528C30.3087 11.3691 30.1599 11.2175 29.9776 11.2175ZM29.9773 11.8281C29.8285 11.8281 29.7086 11.7055 29.7086 11.5537C29.7086 11.4004 29.8276 11.2787 29.9773 11.2787C30.1218 11.2787 30.2412 11.4028 30.2412 11.5537C30.2411 11.7044 30.1218 11.8281 29.9773 11.8281Z" fill="#1D1D1B"/>
<path d="M10.1797 16.658L11.3167 17.8491V16.7202H11.4791V18.2434L10.3424 17.055V18.1782H10.1797V16.658Z" fill="#1D1D1B"/>
<path d="M10.1641 16.658V18.1936H10.3568C10.3568 18.1936 10.3568 17.1634 10.3568 17.0924C10.4066 17.1446 11.4934 18.2813 11.4934 18.2813V16.7048H11.3009C11.3009 16.7048 11.3009 17.7402 11.3009 17.8114C11.2509 17.7585 10.1641 16.6199 10.1641 16.6199V16.658ZM10.1946 16.6961C10.2449 16.748 11.3321 17.8874 11.3321 17.8874C11.3321 17.8874 11.3321 16.7646 11.3321 16.7348C11.3536 16.7348 11.441 16.7348 11.4634 16.7348C11.4634 16.7644 11.4634 18.1347 11.4634 18.2064C11.4131 18.1536 10.3272 17.0167 10.3272 17.0167C10.3272 17.0167 10.3272 18.1335 10.3272 18.1629C10.304 18.1629 10.2168 18.1629 10.1946 18.1629C10.1946 18.1339 10.1946 16.7672 10.1946 16.6961Z" fill="#1D1D1B"/>
<path d="M12.2666 16.7202H13.022V16.8708H12.4285V17.3045H13.0047V17.455H12.4285V18.0272H13.022V18.1782H12.2666V16.7202Z" fill="#1D1D1B"/>
<path d="M13.0219 16.7048H12.251V18.1935H13.0374V18.0118C13.0374 18.0118 12.4726 18.0118 12.444 18.0118C12.444 17.9836 12.444 17.498 12.444 17.4695C12.4727 17.4695 13.0197 17.4695 13.0197 17.4695V17.2895C13.0197 17.2895 12.4726 17.2895 12.444 17.2895C12.444 17.2613 12.444 16.9133 12.444 16.887C12.4727 16.887 13.0374 16.887 13.0374 16.887V16.7048H13.0219ZM13.0069 16.7347C13.0069 16.7565 13.0069 16.8341 13.0069 16.8555C12.9777 16.8555 12.4131 16.8555 12.4131 16.8555V17.3194C12.4131 17.3194 12.9605 17.3194 12.9892 17.3194C12.9892 17.3407 12.9892 17.4175 12.9892 17.4396C12.9605 17.4396 12.4131 17.4396 12.4131 17.4396V18.0422C12.4131 18.0422 12.9777 18.0422 13.0069 18.0422C13.0069 18.0644 13.0069 18.1411 13.0069 18.1629C12.9781 18.1629 12.31 18.1629 12.2813 18.1629C12.2813 18.1339 12.2813 16.7646 12.2813 16.7348C12.31 16.7347 12.9781 16.7347 13.0069 16.7347Z" fill="#1D1D1B"/>
<path d="M14.1695 18.1782H14.0068V16.8708H13.6553V16.7202H14.5252V16.8708H14.1695V18.1782Z" fill="#1D1D1B"/>
<path d="M14.5249 16.7048H13.6387V16.887C13.6387 16.887 13.9634 16.887 13.9911 16.887C13.9911 16.916 13.9911 18.1935 13.9911 18.1935H14.1839C14.1839 18.1935 14.1839 16.916 14.1839 16.887C14.212 16.887 14.5399 16.887 14.5399 16.887V16.7048H14.5249ZM14.5097 16.7347C14.5097 16.7565 14.5097 16.8341 14.5097 16.8555C14.4822 16.8555 14.1539 16.8555 14.1539 16.8555C14.1539 16.8555 14.1539 18.1334 14.1539 18.1628C14.1313 18.1628 14.0445 18.1628 14.0217 18.1628C14.0217 18.1334 14.0217 16.8555 14.0217 16.8555C14.0217 16.8555 13.6975 16.8555 13.6702 16.8555C13.6702 16.8341 13.6702 16.7565 13.6702 16.7347C13.698 16.7347 14.4811 16.7347 14.5097 16.7347Z" fill="#1D1D1B"/>
<path d="M15.6109 17.8129L16.0829 16.6443L16.5545 17.8129L16.9374 16.7203H17.1141L16.5545 18.2533L16.0829 17.079L15.6109 18.2533L15.0527 16.7203H15.2285L15.6109 17.8129Z" fill="#1D1D1B"/>
<path d="M16.0699 16.6389C16.0699 16.6389 15.6406 17.6999 15.6125 17.7697C15.5878 17.6991 15.2393 16.705 15.2393 16.705H15.0312L15.6116 18.2969C15.6116 18.2969 16.0572 17.1874 16.0836 17.1203C16.1101 17.1874 16.5557 18.2969 16.5557 18.2969L17.136 16.705H16.9275C16.9275 16.705 16.5791 17.6991 16.5544 17.7697C16.5258 17.6999 16.0836 16.6042 16.0836 16.6042L16.0699 16.6389ZM15.6257 17.8184C15.6257 17.8184 16.0572 16.7506 16.0836 16.6858C16.1101 16.7506 16.5561 17.8559 16.5561 17.8559C16.5561 17.8559 16.9416 16.755 16.9489 16.7348C16.9655 16.7348 17.0614 16.7348 17.0924 16.7348C17.0789 16.7736 16.5805 18.1406 16.5544 18.2111C16.5268 18.1417 16.0837 17.0389 16.0837 17.0389C16.0837 17.0389 15.6398 18.1417 15.6121 18.2111C15.587 18.1406 15.0894 16.7736 15.0748 16.7348C15.1054 16.7348 15.2014 16.7348 15.218 16.7348C15.2249 16.7549 15.6108 17.8559 15.6108 17.8559L15.6257 17.8184Z" fill="#1D1D1B"/>
<path d="M19.214 17.4509C19.214 17.8704 18.8693 18.2035 18.4541 18.2035C18.0379 18.2035 17.6943 17.8704 17.6943 17.4509C17.6943 17.0334 18.0379 16.6953 18.4541 16.6953C18.8693 16.6953 19.214 17.0334 19.214 17.4509ZM17.8562 17.4491C17.8562 17.7776 18.1231 18.0521 18.4541 18.0521C18.7849 18.0521 19.0511 17.7775 19.0511 17.4491C19.0511 17.1184 18.7884 16.8454 18.4541 16.8454C18.1198 16.8454 17.8562 17.1184 17.8562 17.4491Z" fill="#1D1D1B"/>
<path d="M17.6787 17.4509C17.6787 17.874 18.0265 18.2184 18.454 18.2184C18.8811 18.2184 19.2291 17.8739 19.2291 17.4509C19.2291 17.0252 18.8811 16.6802 18.454 16.6802C18.0266 16.6802 17.6787 17.0252 17.6787 17.4509ZM17.7086 17.4509C17.7086 17.0424 18.0429 16.7106 18.454 16.7106C18.8642 16.7106 19.1994 17.0424 19.1994 17.4509C19.1994 17.8576 18.8643 18.1882 18.454 18.1882C18.0428 18.1882 17.7086 17.8576 17.7086 17.4509Z" fill="#1D1D1B"/>
<path d="M17.8408 17.449C17.8408 17.7912 18.1164 18.0675 18.4541 18.0675C18.7917 18.0675 19.0658 17.7912 19.0658 17.449C19.0658 17.1081 18.7917 16.8308 18.4541 16.8308C18.1164 16.8308 17.8408 17.1081 17.8408 17.449ZM17.8716 17.449C17.8716 17.1251 18.1326 16.8611 18.4541 16.8611C18.7755 16.8611 19.0357 17.1251 19.0357 17.449C19.0357 17.7732 18.7756 18.0376 18.4541 18.0376C18.1326 18.0376 17.8716 17.7732 17.8716 17.449Z" fill="#1D1D1B"/>
<path d="M20.08 18.1782H19.918V16.7202H20.1286C20.4049 16.7202 20.6616 16.7941 20.6616 17.1223C20.6616 17.3467 20.5214 17.5054 20.2967 17.5246L20.7605 18.1783H20.561L20.121 17.5378H20.08V18.1782ZM20.08 17.3948H20.1304C20.3137 17.3948 20.4997 17.3603 20.4997 17.1338C20.4997 16.8947 20.3237 16.8708 20.1286 16.8708H20.08V17.3948Z" fill="#1D1D1B"/>
<path d="M19.9186 16.7049H19.9033V18.1936H20.096C20.096 18.1936 20.096 17.5821 20.096 17.5531C20.1075 17.5531 20.1206 17.5531 20.121 17.5531C20.121 17.5641 20.5496 18.1867 20.5496 18.1867L20.7611 18.1936H20.791C20.791 18.1936 20.3459 17.5671 20.3228 17.5335C20.5378 17.5039 20.6776 17.3466 20.6776 17.1223C20.6776 16.841 20.4984 16.7048 20.1293 16.7048L19.9186 16.7049ZM20.1292 16.7348C20.4823 16.7348 20.6473 16.8581 20.6473 17.1223C20.6473 17.3391 20.5096 17.4916 20.2959 17.5096L20.269 17.5121C20.269 17.5121 20.7007 18.1185 20.7321 18.1628C20.6894 18.1628 20.5624 18.1628 20.5616 18.1628H20.562C20.562 18.1518 20.1335 17.5292 20.1335 17.5292L20.0805 17.5227H20.0652C20.0652 17.5227 20.0652 18.1338 20.0652 18.1628C20.0431 18.1628 19.9553 18.1628 19.9334 18.1628C19.9334 18.1338 19.9334 16.7645 19.9334 16.7346C19.9596 16.7348 20.1292 16.7348 20.1292 16.7348Z" fill="#1D1D1B"/>
<path d="M20.0807 16.8555H20.0654V17.4098H20.1312C20.3102 17.4098 20.5157 17.3782 20.5157 17.1339C20.5157 16.8768 20.3162 16.8555 20.1294 16.8555H20.0807ZM20.1294 16.887C20.3166 16.887 20.485 16.905 20.485 17.1339C20.485 17.3501 20.3064 17.3791 20.1311 17.3791C20.1311 17.3791 20.111 17.3791 20.0961 17.3791C20.0961 17.3515 20.0961 16.9144 20.0961 16.887C20.1106 16.887 20.1294 16.887 20.1294 16.887Z" fill="#1D1D1B"/>
<path d="M22.233 16.7202H22.4514L21.767 17.3995L22.4744 18.1782H22.2501L21.6524 17.5092L21.6117 17.5488V18.1782H21.4492V16.7202H21.6117V17.3445L22.233 16.7202Z" fill="#1D1D1B"/>
<path d="M22.4512 16.7048H22.2268C22.2268 16.7048 21.6741 17.2596 21.6273 17.3083C21.6273 17.2425 21.6273 16.7048 21.6273 16.7048H21.4346V18.1935H21.6273C21.6273 18.1935 21.6273 17.5543 21.6273 17.5513C21.6289 17.5521 21.6414 17.5402 21.6511 17.5309C21.6716 17.553 22.2387 18.1884 22.2387 18.1884L22.4742 18.1936H22.5091C22.5091 18.1936 21.8069 17.4205 21.7868 17.4C21.8081 17.3791 22.4873 16.7049 22.4873 16.7049H22.4512V16.7048ZM22.414 16.7347C22.3654 16.7838 21.7455 17.3986 21.7455 17.3986C21.7455 17.3986 22.397 18.115 22.4401 18.1628C22.3898 18.1628 22.2499 18.1628 22.2499 18.1628C22.2499 18.1551 21.6631 17.4989 21.6631 17.4989L21.6529 17.4866L21.6008 17.5386C21.6008 17.5386 21.5966 18.1338 21.5966 18.1628C21.5736 18.1628 21.4866 18.1628 21.4649 18.1628C21.4649 18.1338 21.4649 16.7646 21.4649 16.7347C21.4866 16.7347 21.5736 16.7347 21.5966 16.7347C21.5966 16.7643 21.5966 17.3818 21.5966 17.3818C21.5966 17.3818 22.2303 16.7437 22.2387 16.7347C22.2486 16.7347 22.3646 16.7347 22.414 16.7347Z" fill="#1D1D1B"/>
</g>
<defs>
<radialGradient id="paint0_radial_774_865" cx="0" cy="0" r="1" gradientUnits="userSpaceOnUse" gradientTransform="translate(17.0004 13.3424) scale(2.29486)">
<stop offset="0.0056" stop-color="#FFF2E8"/>
<stop offset="0.0961" stop-color="#FEEDDF"/>
<stop offset="0.2438" stop-color="#FDE1C7"/>
<stop offset="0.4303" stop-color="#FACD9F"/>
<stop offset="0.6484" stop-color="#F6B168"/>
<stop offset="0.8901" stop-color="#F08E22"/>
<stop offset="1" stop-color="#EE7D00"/>
</radialGradient>
<clipPath id="clip0_774_865">
<rect width="32" height="32" fill="white"/>
</clipPath>
</defs>
</svg>
