<svg width="24" height="24" viewBox="0 0 24 24" fill="none" xmlns="http://www.w3.org/2000/svg">
<path fill-rule="evenodd" clip-rule="evenodd" d="M3.9375 6.375C5.2837 6.375 6.375 5.2837 6.375 3.9375C6.375 2.59131 5.2837 1.5 3.9375 1.5C2.59131 1.5 1.5 2.59131 1.5 3.9375C1.5 5.2837 2.59131 6.375 3.9375 6.375ZM19.5 8.43708C22.05 9.48712 22.5 11.625 22.5 14.6247V22.4997H18.375V14.6247C18.375 10.4999 13.125 10.8748 13.125 15.3747V22.5H9V8.625H13.125V10.155C14.5585 8.35317 17.4438 7.59033 19.5 8.43708ZM1.875 8.625H6V22.5H1.875V8.625Z" fill="#3E3027"/>
</svg>
