<svg width="24" height="24" viewBox="0 0 24 24" fill="none" xmlns="http://www.w3.org/2000/svg">
<path fill-rule="evenodd" clip-rule="evenodd" d="M6.75 1.40625C3.79873 1.40625 1.40625 3.79873 1.40625 6.75V17.25C1.40625 20.2013 3.79873 22.5938 6.75 22.5938H17.25C20.2013 22.5938 22.5938 20.2013 22.5938 17.25V6.75C22.5938 3.79873 20.2013 1.40625 17.25 1.40625H6.75ZM3.09375 6.75C3.09375 4.73072 4.73072 3.09375 6.75 3.09375H17.25C19.2693 3.09375 20.9062 4.73072 20.9062 6.75V17.25C20.9062 19.2693 19.2693 20.9062 17.25 20.9062H6.75C4.73072 20.9062 3.09375 19.2693 3.09375 17.25V6.75ZM7.96875 12C7.96875 9.77363 9.77363 7.96875 12 7.96875C14.2264 7.96875 16.0312 9.77363 16.0312 12C16.0312 14.2264 14.2264 16.0312 12 16.0312C9.77363 16.0312 7.96875 14.2264 7.96875 12ZM12 6.28125C8.84161 6.28125 6.28125 8.84161 6.28125 12C6.28125 15.1584 8.84161 17.7188 12 17.7188C15.1584 17.7188 17.7188 15.1584 17.7188 12C17.7188 8.84161 15.1584 6.28125 12 6.28125ZM18 7.125C18.6213 7.125 19.125 6.62133 19.125 6C19.125 5.37867 18.6213 4.875 18 4.875C17.3787 4.875 16.875 5.37867 16.875 6C16.875 6.62133 17.3787 7.125 18 7.125Z" fill="#3E3027"/>
</svg>
