<svg width="24" height="24" viewBox="0 0 24 24" fill="none" xmlns="http://www.w3.org/2000/svg">
<path d="M8.07478 3.28143C6.1552 3.04436 2.91393 6.14114 1.5 7.88484L2.34836 9.14006C2.98463 8.72156 4.2982 7.69387 4.89342 8.72156C5.74181 10.1863 7.01433 15.6267 7.86272 17.9284C8.71106 20.2301 10.1957 22.1133 13.1649 20.2301C16.1342 18.3469 20.376 13.5347 21.8606 9.76819C23.3452 6.00164 22.2848 2.44466 18.2551 3.0724C15.0314 3.57459 13.6598 6.48994 13.377 7.88484C15.498 6.83873 16.516 7.71755 16.3463 9.55894C16.1342 11.8606 13.5891 14.3716 13.1649 14.5808C12.7408 14.7901 11.8924 14.1623 11.044 9.76819C10.1957 5.37398 9.77151 3.49098 8.07478 3.28143Z" fill="#3E3027"/>
</svg>
